<?xml version="1.0" encoding="iso-8859-1"?>
<!-- Generator: Adobe Illustrator 16.0.0, SVG Export Plug-In . SVG Version: 6.00 Build 0)  -->
<!DOCTYPE svg PUBLIC "-//W3C//DTD SVG 1.1//EN" "http://www.w3.org/Graphics/SVG/1.1/DTD/svg11.dtd">
<svg version="1.1" id="Capa_1" xmlns="http://www.w3.org/2000/svg" xmlns:xlink="http://www.w3.org/1999/xlink" x="0px" y="0px"
	 width="70.114px" height="70.114px" viewBox="0 0 70.114 70.114" style="enable-background:new 0 0 70.114 70.114;"
	 xml:space="preserve">
<g>
	<path d="M45.213,1.873c0,0,0.887-0.912,0.814-1.241c-0.068-0.337-1.984,0.746-3.265,1.401c-1.276,0.652-2.228,0.911-2.573,1.759
		c-0.356,0.852-1.311,3.11-1.311,3.11s-0.391-0.198-0.421-0.525c-0.034-0.328-0.432-0.752-0.95-0.623
		c-0.525,0.137-0.494,0.726-0.749,0.854c-0.264,0.123-0.755,0.684-0.519,1.179c0.224,0.486,0.325,0.91,0.485,1.041
		c0.151,0.13,0.1,0.648-0.101,0.812c-0.196,0.165-0.385,0.13-0.712-0.027c-0.332-0.173-0.858-0.46-1.017-0.625
		c-0.167-0.161-0.592-1.496-0.552-1.826c0.03-0.329,0.188-0.554,0.188-0.554s1.11-0.128,1.24-0.329
		c0.141-0.2,0.229-0.589,0.165-0.719c-0.07-0.137-0.129-0.231-0.416-0.231s-1.08,0.032-1.351,0.13
		c-0.251,0.101-1.201,0.161-1.331,0.259c-0.134,0.103-0.134,0.467-0.035,0.691c0.101,0.224,0.065,0.365,0.294,0.365
		c0.228,0,0.419,0.094,0.419,0.094l-0.027,1.013c0,0-1.265-2.096-3.006-3.662c-1.735-1.567-6.045-4.339-6.305-4.216
		c-0.259,0.137,0.07,1.307,0.07,1.307s-0.329,0.358-0.07,1.177c0.256,0.813,1.767,1.602,1.767,1.602s0.098,0.789,0.519,1.213
		c0.423,0.416,1.436,0.91,1.436,0.91s0.267,1.244,0.814,1.531c0.556,0.294,1.306,0.525,1.306,0.525s0,0.946,0.495,1.17
		c0.491,0.231,1.266,0.2,1.266,0.2s-0.645,1.041-0.187,1.472c0.455,0.431,1.037,0.431,1.037,0.431s-0.094,0.842,0.301,0.979
		c0.39,0.122,0.656-0.137,0.656-0.137s-0.134,0.847,0.294,1.047c0.421,0.2,0.785-0.26,0.785-0.26s0.063,0.618,0.516,0.582
		c0.458-0.027,0.624-0.199,0.624-0.199s0.553,0.595,0.392,0.95c-0.164,0.364-0.756,1.282-0.756,1.282s-0.744,0.029-0.715,0.618
		c0.037,0.588,0.455,0.689,0.521,0.91c0.066,0.231-0.134,1.114-0.421,1.251c-0.298,0.123-0.88,0.487-0.91,0.739
		c-0.036,0.267-0.919,0.527-0.883,0.925c0.034,0.389,0.847,0.912,0.949,1.371c0.095,0.452,0.364,0.84,0.876,0.97
		c0.525,0.137,0.757,0.631,0.659,1.184c-0.103,0.555,0.416,1.466,1.013,1.561c0.578,0.101,0.646,0.789,0.393,1.211
		c-0.271,0.421-1.084,0.685-1.217,1.21c-0.125,0.525,0.133,0.977,0.133,0.977s-0.722,0.394-0.91,1.013
		c-0.113,0.337-0.019,0.575,0.091,0.726l-0.648,0.695l-0.337,0.655c-0.094,0.097-0.178,0.205-0.225,0.335
		c-0.017,0.066-0.027,0.13-0.027,0.2l-0.294,0.575v0.416l-0.161,0.06v1.107h0.161v3.307l-1.983,0.558v6.054l1.653,2.635v23.065
		h10.224V47.048l1.649-2.635V38.36l-1.968-0.552V34.5h0.253v-1.082l-0.26-0.103v-0.402l-0.014-0.029
		c0.014-0.225-0.024-0.493-0.154-0.669c-0.078-0.122-0.219-0.245-0.355-0.351l-0.363-0.717l-0.328-0.344l-0.027-0.157l-0.198-0.074
		l-0.329-0.344v-0.344c0,0-0.181-0.007-0.366-0.041l-1.279-1.34h-0.062c-0.235-0.335-0.42-0.658-0.406-0.801
		c0.027-0.366,0.387-0.46,0.387-0.754s-0.024-1.927,0.27-2.277c0.288-0.361,0.613-1.177,0.582-1.514
		c-0.034-0.318-0.034-0.813-0.034-0.813s0.91,0.655,1.047,1.047c0.13,0.39,0.165,1.63,0.391,1.63s0.657-0.711,0.619-1.24
		c-0.03-0.519-0.646-1.17-0.455-1.307c0.198-0.13,1.571-0.678,1.599-2.089c0.023-1.408-1.044-1.959-1.896-2.548
		c-0.842-0.585-1.238-0.974-1.146-1.468c0.103-0.486-0.674-1.341-0.845-1.759c-0.154-0.424-0.291-1.766-0.291-1.766
		s1.081,1.438,1.308,1.401c0.226-0.034,2.508,0.264,2.508,0.264s0.363,0.883,0.564,0.883c0.186,0,0.356-0.46,0.387-0.718
		c0.031-0.26,0.295-0.813,0.096-1.013c-0.194-0.193-0.396-0.392-0.711-0.298c-0.339,0.104-0.339,0.495-0.497,0.495
		c-0.167,0-1.927-0.519-2.091-0.659c-0.164-0.13-1.074-1.983-1.074-1.983s0.366-0.26,0.366-0.631c0-0.351-0.065-1.565-0.065-1.565
		S40.939,8.534,41,8.27c0.068-0.265,0.068-0.422,0.068-0.422s0.657-0.2,0.723-0.555c0.062-0.361,0.089-0.985,0.455-1.047
		c0.355-0.063,0.749-0.233,0.951-0.652c0.198-0.425,0.086-0.855,0.086-0.855s0.499-0.354,0.585-0.743
		c0.092-0.39,0.134-0.624,0.134-0.624s1.413-0.553,1.475-0.917C45.539,2.1,45.213,1.873,45.213,1.873z"/>
</g>
<g>
</g>
<g>
</g>
<g>
</g>
<g>
</g>
<g>
</g>
<g>
</g>
<g>
</g>
<g>
</g>
<g>
</g>
<g>
</g>
<g>
</g>
<g>
</g>
<g>
</g>
<g>
</g>
<g>
</g>
</svg>
